<svg width="1587" height="1704" viewBox="0 0 1587 1704" fill="none" xmlns="http://www.w3.org/2000/svg">
<rect width="1587" height="170" fill="none"/>
<path d="M401.5 707.25C419 688.117 434.633 667.817 448.4 646.35C462.4 624.883 475.35 600.733 487.25 573.9C493.317 574.6 499.15 576.233 504.75 578.8C510.35 581.367 514.783 584.283 518.05 587.55C505.217 602.95 493.55 616.95 483.05 629.55C472.783 642.15 463.333 654.05 454.7 665.25C446.067 676.217 438.017 686.833 430.55 697.1C423.317 707.133 416.2 717.283 409.2 727.55C405.7 739.45 402.433 751.467 399.4 763.6C396.367 775.733 393.683 787.4 391.35 798.6C389.017 809.567 387.15 819.717 385.75 829.05C384.583 838.617 384 846.783 384 853.55C381.433 853.55 377.35 852.967 371.75 851.8C366.15 850.867 360.433 849.7 354.6 848.3C348.767 846.9 343.4 845.5 338.5 844.1C333.833 842.7 331.033 841.533 330.1 840.6C333.833 834.3 337.45 826.6 340.95 817.5C344.683 808.167 348.3 798.483 351.8 788.45C355.3 778.183 358.683 767.917 361.95 757.65C365.217 747.15 368.25 737.467 371.05 728.6C365.217 710.4 359.5 693.367 353.9 677.5C348.533 661.4 343.283 646.933 338.15 634.1C333.017 621.033 328.117 609.833 323.45 600.5C318.783 591.167 314.35 584.05 310.15 579.15C312.483 578.217 315.983 577.283 320.65 576.35C325.55 575.417 330.8 574.483 336.4 573.55C342.233 572.617 348.067 571.917 353.9 571.45C359.967 570.75 365.333 570.283 370 570.05C370 575.883 370.467 583 371.4 591.4C372.567 599.8 373.967 608.783 375.6 618.35C377.467 627.917 379.567 637.6 381.9 647.4C384.233 657.2 386.567 666.183 388.9 674.35C391.233 682.517 393.45 689.633 395.55 695.7C397.883 701.533 399.867 705.383 401.5 707.25ZM498.529 840.25C485.229 838.85 474.613 833.017 466.679 822.75C458.746 812.483 454.779 799.417 454.779 783.55C454.779 774.217 456.179 764.533 458.979 754.5C461.779 744.467 465.746 734.783 470.879 725.45C476.013 715.883 482.079 706.9 489.079 698.5C496.079 690.1 503.663 682.867 511.829 676.8C524.663 667.233 536.679 662.45 547.879 662.45C555.346 666.417 562.696 674.7 569.929 687.3C571.096 687.3 572.146 687.3 573.079 687.3C574.013 687.067 575.063 686.95 576.229 686.95C588.596 686.95 594.779 697.917 594.779 719.85C594.779 734.55 592.329 748.55 587.429 761.85C582.763 774.917 576.113 786.817 567.479 797.55C559.079 808.283 548.929 817.383 537.029 824.85C525.363 832.083 512.529 837.217 498.529 840.25ZM516.379 730C512.413 735.367 508.679 741.2 505.179 747.5C501.679 753.8 498.646 760.217 496.079 766.75C493.513 773.05 491.529 779.233 490.129 785.3C488.729 791.133 488.029 796.383 488.029 801.05C488.029 806.65 488.963 812.017 490.829 817.15C492.696 822.283 494.796 825.2 497.129 825.9C507.629 823.567 517.196 819.25 525.829 812.95C534.696 806.417 542.279 798.367 548.579 788.8C555.113 779.233 560.129 768.383 563.629 756.25C567.363 744.117 569.229 731.167 569.229 717.4C569.229 711.333 568.879 706.55 568.179 703.05C567.479 699.55 566.313 696.517 564.679 693.95C554.413 696.983 545.196 701.883 537.029 708.65C529.096 715.417 522.213 722.533 516.379 730ZM706.921 820.3C702.488 816.567 699.455 811.9 697.821 806.3C696.421 800.7 695.721 795.917 695.721 791.95C695.721 787.05 696.305 782.85 697.471 779.35C696.538 779.35 694.438 781.217 691.171 784.95C687.905 788.683 684.288 793.117 680.321 798.25C676.588 803.383 672.855 808.4 669.121 813.3C665.388 818.2 662.588 821.817 660.721 824.15C657.688 827.417 654.771 829.983 651.971 831.85C649.405 833.717 647.305 834.767 645.671 835C641.938 834.767 637.971 833.95 633.771 832.55C629.805 831.383 625.955 829.633 622.221 827.3C618.721 824.967 615.571 822.167 612.771 818.9C610.205 815.633 608.455 811.9 607.521 807.7C607.521 801.167 607.638 795.8 607.871 791.6C608.338 787.4 609.155 782.85 610.321 777.95C612.421 769.083 615.455 759.05 619.421 747.85C623.621 736.65 628.405 725.683 633.771 714.95C639.138 703.983 645.088 693.833 651.621 684.5C658.388 674.933 665.505 667.467 672.971 662.1C675.071 662.1 677.521 662.333 680.321 662.8C683.121 663.033 685.921 663.617 688.721 664.55C691.755 665.483 694.555 666.65 697.121 668.05C699.921 669.217 702.255 670.85 704.121 672.95C702.021 675.283 696.655 683.1 688.021 696.4C679.621 709.7 670.171 728.833 659.671 753.8C658.505 756.367 657.105 760.1 655.471 765C653.838 769.9 652.205 775.033 650.571 780.4C648.938 785.767 647.538 791.017 646.371 796.15C645.438 801.283 644.971 805.367 644.971 808.4C644.971 810.267 645.205 811.667 645.671 812.6C646.371 813.533 646.955 814.233 647.421 814.7C650.921 813.3 655.355 809.45 660.721 803.15C666.088 796.85 673.555 787.167 683.121 774.1C685.455 770.833 688.138 767.1 691.171 762.9C694.438 758.7 697.705 754.267 700.971 749.6C704.238 744.7 707.271 739.683 710.071 734.55C713.105 729.417 715.555 724.283 717.421 719.15C718.355 716.35 719.521 713.083 720.921 709.35C722.555 705.383 724.421 701.3 726.521 697.1C728.855 692.9 731.421 688.7 734.221 684.5C737.255 680.067 740.755 675.983 744.721 672.25C747.755 672.25 751.021 672.6 754.521 673.3C758.021 674 761.288 674.933 764.322 676.1C767.588 677.033 770.388 678.2 772.721 679.6C775.055 680.767 776.805 682.05 777.971 683.45C773.771 693.717 769.105 703.867 763.971 713.9C758.838 723.933 754.055 733.85 749.621 743.65C745.188 753.217 741.455 762.783 738.421 772.35C735.388 781.917 733.871 791.25 733.871 800.35C733.871 805.25 734.221 809.567 734.921 813.3C735.855 816.8 736.788 819.833 737.721 822.4C738.655 824.733 739.471 826.717 740.171 828.35C741.105 829.983 741.571 831.383 741.571 832.55C741.571 832.783 741.338 833.133 740.871 833.6C740.638 833.833 740.405 833.95 740.171 833.95C738.538 833.95 736.438 833.6 733.871 832.9C731.305 832.2 728.388 831.15 725.121 829.75C722.088 828.583 718.938 827.183 715.671 825.55C712.638 823.917 709.721 822.167 706.921 820.3Z" fill="white"/>
<path d="M1256.75 851.25C1253.25 850.783 1248.47 849.85 1242.4 848.45C1236.33 847.283 1230.15 844.833 1223.85 841.1C1217.55 837.367 1212.18 831.65 1207.75 823.95C1203.32 816.483 1201.1 806.45 1201.1 793.85C1201.1 779.383 1204.02 763.517 1209.85 746.25C1215.92 728.75 1223.27 710.55 1231.9 691.65C1240.53 672.75 1248.82 654.083 1256.75 635.65C1263.05 620.95 1266.2 609.75 1266.2 602.05C1266.2 594.35 1263.28 590.5 1257.45 590.5C1250.92 590.5 1241.12 595.75 1228.05 606.25C1215.22 616.517 1200.28 632.15 1183.25 653.15C1178.82 658.75 1173.1 666.567 1166.1 676.6C1159.1 686.4 1151.63 697.367 1143.7 709.5C1135.77 721.4 1127.95 733.533 1120.25 745.9C1112.78 758.033 1106.13 769.233 1100.3 779.5C1094.7 789.767 1090.62 797.933 1088.05 804C1085.02 811.233 1081.52 816.133 1077.55 818.7C1073.58 821.5 1069.85 822.9 1066.35 822.9C1063.32 822.9 1060.63 822.083 1058.3 820.45C1056.2 818.817 1055.15 816.833 1055.15 814.5C1055.15 813.1 1055.5 811.933 1056.2 811C1057.6 808.2 1061.33 801.433 1067.4 790.7C1073.47 779.967 1080.35 765.733 1088.05 748C1095.75 730.033 1103.1 709.267 1110.1 685.7C1117.33 661.9 1122.7 635.65 1126.2 606.95C1126.67 603.683 1126.9 600.183 1126.9 596.45C1126.9 588.283 1125.5 582.333 1122.7 578.6C1119.9 574.633 1116.17 572.65 1111.5 572.65C1106.37 572.65 1100.53 574.867 1094 579.3C1087.47 583.733 1080.82 590.15 1074.05 598.55C1062.38 613.25 1052.12 626.9 1043.25 639.5C1034.38 651.867 1026.22 664.233 1018.75 676.6C1011.52 688.967 1004.28 702.15 997.05 716.15C990.05 730.15 982.583 745.9 974.65 763.4C966.717 780.667 957.617 800.733 947.35 823.6C945.717 827.333 942.917 830.017 938.95 831.65C935.217 833.283 931.717 834.1 928.45 834.1C925.183 834.1 922.5 833.4 920.4 832C918.3 830.6 917.6 828.617 918.3 826.05C924.367 816.717 930.9 804.933 937.9 790.7C944.9 776.467 951.9 760.95 958.9 744.15C966.133 727.117 972.783 709.967 978.85 692.7C985.15 675.2 990.517 658.75 994.95 643.35C999.383 627.717 1002.42 614.183 1004.05 602.75C1004.52 599.017 1004.87 595.517 1005.1 592.25C1005.33 588.983 1005.45 585.833 1005.45 582.8C1005.45 564.833 1001.6 552 993.9 544.3C986.433 536.6 976.75 532.75 964.85 532.75C954.817 532.75 943.85 535.083 931.95 539.75C920.283 544.183 908.383 550.367 896.25 558.3C884.35 566.233 872.917 575.45 861.95 585.95C850.983 596.217 841.3 607.3 832.9 619.2C824.5 630.867 818.083 642.767 813.65 654.9C810.617 663.533 808.283 671.817 806.65 679.75C805.25 687.45 804.55 694.683 804.55 701.45C804.55 714.517 806.883 725.6 811.55 734.7C816.45 743.8 822.867 750.683 830.8 755.35C838.967 760.017 847.717 762.35 857.05 762.35C860.317 762.35 863.933 762 867.9 761.3C872.1 760.367 875.6 759.433 878.4 758.5C885.167 755.933 891.7 751.967 898 746.6C904.3 741 909.9 734.583 914.8 727.35C919.7 720.117 923.55 712.767 926.35 705.3C929.15 697.833 930.55 690.833 930.55 684.3C930.55 677.533 928.683 671.933 924.95 667.5C921.217 663.067 915.267 660.85 907.1 660.85C906.167 660.85 905.117 660.967 903.95 661.2C903.017 661.2 901.967 661.2 900.8 661.2H899.75C898.117 661.2 896.6 660.967 895.2 660.5C893.8 659.8 893.1 658.983 893.1 658.05C893.1 657.117 894.267 656.067 896.6 654.9C899.167 653.733 903.717 653.15 910.25 653.15C920.75 653.15 928.567 656.3 933.7 662.6C939.067 668.667 941.75 676.483 941.75 686.05C941.75 694.683 939.417 704.017 934.75 714.05C930.083 724.083 923.083 733.65 913.75 742.75C904.417 751.85 892.633 759.317 878.4 765.15C870 768.417 861.833 770.05 853.9 770.05C842.233 770.05 831.15 767.133 820.65 761.3C810.15 755.233 801.633 746.717 795.1 735.75C788.567 724.55 785.3 711.367 785.3 696.2C785.3 689.433 786 682.317 787.4 674.85C789.033 667.15 791.6 659.217 795.1 651.05C802.8 633.083 813.183 616.517 826.25 601.35C839.55 585.95 854.25 572.65 870.35 561.45C886.45 550.017 902.783 541.15 919.35 534.85C935.917 528.55 951.317 525.4 965.55 525.4C982.817 525.4 997.05 530.533 1008.25 540.8C1019.68 551.067 1025.4 567.633 1025.4 590.5C1025.4 592.133 1025.28 594.35 1025.05 597.15C1025.05 599.717 1024.93 601.7 1024.7 603.1C1023.3 615 1020.85 626.9 1017.35 638.8C1014.08 650.7 1010.47 662.133 1006.5 673.1C1005.8 674.967 1005.22 676.95 1004.75 679.05C1004.52 680.917 1004.4 682.2 1004.4 682.9C1004.4 684.067 1004.63 684.65 1005.1 684.65C1006.03 684.65 1007.9 682.2 1010.7 677.3C1016.07 667.5 1020.85 658.983 1025.05 651.75C1029.48 644.283 1033.8 637.517 1038 631.45C1042.2 625.383 1046.75 619.2 1051.65 612.9C1056.55 606.6 1062.15 599.6 1068.45 591.9C1075.68 583.267 1083.97 576.383 1093.3 571.25C1102.63 566.117 1111.62 563.55 1120.25 563.55C1127.95 563.55 1134.48 566.117 1139.85 571.25C1145.22 576.383 1147.9 585.133 1147.9 597.5C1147.9 598.9 1147.9 600.067 1147.9 601C1147.9 601.933 1147.78 603.333 1147.55 605.2C1145.45 627.6 1141.02 649.65 1134.25 671.35C1127.48 692.817 1120.48 714.517 1113.25 736.45C1120.48 725.25 1130.28 711.017 1142.65 693.75C1155.02 676.483 1168.55 658.633 1183.25 640.2C1201.22 617.8 1217.9 601 1233.3 589.8C1248.7 578.6 1261.42 573 1271.45 573C1284.05 573 1290.35 580.7 1290.35 596.1C1290.35 601.933 1289.18 608.933 1286.85 617.1C1284.75 625.267 1281.37 633.9 1276.7 643C1271.57 653.267 1265.85 665.167 1259.55 678.7C1253.48 692 1247.65 706 1242.05 720.7C1236.45 735.4 1231.78 749.867 1228.05 764.1C1224.55 778.1 1222.8 791.05 1222.8 802.95C1222.8 815.783 1225.72 826.167 1231.55 834.1C1237.62 842.267 1248 846.117 1262.7 845.65H1264.8C1268.3 845.65 1270.05 846.35 1270.05 847.75C1270.05 848.683 1268.88 849.617 1266.55 850.55C1264.22 851.483 1260.95 851.717 1256.75 851.25ZM1291.03 812.4C1282.39 812.4 1274.58 809.6 1267.58 804C1260.81 798.4 1257.43 789.883 1257.43 778.45C1257.43 767.95 1259.99 756.75 1265.13 744.85C1270.26 732.717 1276.79 722.1 1284.73 713C1291.49 705.067 1299.08 698.533 1307.48 693.4C1315.88 688.267 1323.81 685.7 1331.28 685.7C1336.41 685.7 1340.84 687.1 1344.58 689.9C1348.54 692.933 1350.53 697.25 1350.53 702.85C1350.53 708.683 1348.31 715.1 1343.88 722.1C1339.44 729.1 1333.14 735.633 1324.98 741.7C1321.48 744.267 1317.04 746.717 1311.68 749.05C1306.31 751.383 1300.94 753.367 1295.58 755C1290.21 756.4 1285.78 757.1 1282.28 757.1C1281.11 759.9 1279.94 763.633 1278.78 768.3C1277.84 772.967 1277.38 777.75 1277.38 782.65C1277.38 788.483 1278.54 793.733 1280.88 798.4C1283.21 803.067 1287.53 805.4 1293.83 805.4C1301.53 805.4 1308.53 803.183 1314.83 798.75C1321.13 794.317 1326.73 788.833 1331.63 782.3C1336.53 775.533 1340.61 768.767 1343.88 762C1347.38 755.233 1350.18 749.517 1352.28 744.85C1353.68 741.583 1355.54 739.95 1357.88 739.95C1359.04 739.95 1359.63 740.533 1359.63 741.7C1359.63 742.633 1359.28 743.8 1358.58 745.2C1355.31 752.2 1351.81 759.667 1348.08 767.6C1344.34 775.3 1339.91 782.65 1334.78 789.65C1329.64 796.417 1323.46 801.9 1316.23 806.1C1309.23 810.3 1300.83 812.4 1291.03 812.4ZM1284.73 750.8C1287.99 750.8 1293.48 749.633 1301.18 747.3C1308.88 744.733 1315.88 740.767 1322.18 735.4C1328.24 730.033 1332.91 724.2 1336.18 717.9C1339.44 711.367 1341.08 705.883 1341.08 701.45C1341.08 696.317 1339.21 693.75 1335.48 693.75C1332.68 693.75 1328.83 695.617 1323.93 699.35C1319.03 703.083 1312.96 709.383 1305.73 718.25C1301.29 723.85 1297.09 729.917 1293.13 736.45C1289.16 742.983 1286.36 747.767 1284.73 750.8Z" fill="#FF5757" fill-opacity="0.66"/>
<path d="M821.843 801.417C823.636 799.11 826.325 798 829.83 798C833.334 798 836.186 799.281 838.142 801.758C839.935 804.065 840.832 806.883 840.832 810.129C840.832 814.486 839.446 817.902 836.675 820.38C835.453 821.405 833.416 822.771 830.4 824.394L834.231 828.751C836.838 831.655 839.609 834.217 842.543 836.524C844.499 831.996 846.047 827.042 847.025 821.917L852.404 825.675C851.182 830.886 849.633 835.669 847.677 840.026C851.671 842.332 855.909 843.87 860.472 844.724L856.886 851.899C852.323 850.447 848.085 848.397 844.092 845.663C842.299 847.713 840.017 849.422 837.246 850.618C834.638 851.899 831.867 852.497 828.933 852.497C823.392 852.497 819.317 850.874 816.79 847.543C814.019 844.211 812.634 840.624 812.634 836.609C812.634 832.851 813.856 829.519 816.22 826.615C817.605 824.992 819.724 823.284 822.495 821.661C821.68 820.38 821.11 819.184 820.702 817.902C819.724 815.425 819.235 812.948 819.235 810.386C819.154 806.713 820.05 803.638 821.843 801.417ZM820.947 830.63C819.561 832.253 818.828 834.388 818.828 836.865C818.828 838.744 819.643 840.709 821.191 842.759C822.74 844.809 825.347 845.834 828.933 845.834C830.726 845.834 832.601 845.407 834.557 844.553C835.942 843.955 837.327 842.93 838.713 841.478C835.942 839.001 833.66 836.694 831.867 834.644C829.911 832.594 827.711 829.946 825.347 826.871C823.392 827.982 821.925 829.178 820.947 830.63ZM825.103 810.727C825.103 812.179 825.51 813.973 826.325 816.023C826.488 816.877 826.977 817.902 827.792 819.098C829.748 818.073 831.378 817.048 832.519 816.023C834.068 814.571 834.883 812.777 834.883 810.727C834.883 808.848 834.394 807.311 833.416 806.029C832.601 805.004 831.46 804.492 829.83 804.492C828.444 804.492 827.222 805.09 826.244 806.371C825.51 807.396 825.103 808.848 825.103 810.727Z" fill="#FF5757"/>
<path d="M821.843 801.417C823.636 799.11 826.325 798 829.83 798C833.334 798 836.186 799.281 838.142 801.758C839.935 804.065 840.832 806.883 840.832 810.129C840.832 814.486 839.446 817.902 836.675 820.38C835.453 821.405 833.416 822.771 830.4 824.394L834.231 828.751C836.838 831.655 839.609 834.217 842.543 836.524C844.499 831.996 846.047 827.042 847.025 821.917L852.404 825.675C851.182 830.886 849.633 835.669 847.677 840.026C851.671 842.332 855.909 843.87 860.472 844.724L856.886 851.899C852.323 850.447 848.085 848.397 844.092 845.663C842.299 847.713 840.017 849.422 837.246 850.618C834.638 851.899 831.867 852.497 828.933 852.497C823.392 852.497 819.317 850.874 816.79 847.543C814.019 844.211 812.634 840.624 812.634 836.609C812.634 832.851 813.856 829.519 816.22 826.615C817.605 824.992 819.724 823.284 822.495 821.661C821.68 820.38 821.11 819.184 820.702 817.902C819.724 815.425 819.235 812.948 819.235 810.386C819.154 806.713 820.05 803.638 821.843 801.417ZM820.947 830.63C819.561 832.253 818.828 834.388 818.828 836.865C818.828 838.744 819.643 840.709 821.191 842.759C822.74 844.809 825.347 845.834 828.933 845.834C830.726 845.834 832.601 845.407 834.557 844.553C835.942 843.955 837.327 842.93 838.713 841.478C835.942 839.001 833.66 836.694 831.867 834.644C829.911 832.594 827.711 829.946 825.347 826.871C823.392 827.982 821.925 829.178 820.947 830.63ZM825.103 810.727C825.103 812.179 825.51 813.973 826.325 816.023C826.488 816.877 826.977 817.902 827.792 819.098C829.748 818.073 831.378 817.048 832.519 816.023C834.068 814.571 834.883 812.777 834.883 810.727C834.883 808.848 834.394 807.311 833.416 806.029C832.601 805.004 831.46 804.492 829.83 804.492C828.444 804.492 827.222 805.09 826.244 806.371C825.51 807.396 825.103 808.848 825.103 810.727Z" stroke="#C825D6"/>
<path d="M816.209 801.417C818.002 799.11 820.691 798 824.196 798C827.7 798 830.552 799.281 832.508 801.758C834.301 804.065 835.198 806.883 835.198 810.129C835.198 814.486 833.812 817.902 831.041 820.38C829.819 821.405 827.782 822.771 824.766 824.394L828.597 828.751C831.204 831.655 833.975 834.217 836.909 836.524C838.865 831.996 840.413 827.042 841.391 821.917L846.77 825.675C845.548 830.886 843.999 835.669 842.043 840.026C846.037 842.332 850.275 843.87 854.838 844.724L851.252 851.899C846.689 850.447 842.451 848.397 838.458 845.663C836.665 847.713 834.383 849.422 831.612 850.618C829.004 851.899 826.233 852.497 823.299 852.497C817.758 852.497 813.683 850.874 811.156 847.543C808.385 844.211 807 840.624 807 836.609C807 832.851 808.222 829.519 810.586 826.615C811.971 824.992 814.09 823.284 816.861 821.661C816.046 820.38 815.476 819.184 815.068 817.902C814.09 815.425 813.601 812.948 813.601 810.386C813.52 806.713 814.416 803.638 816.209 801.417ZM815.313 830.63C813.927 832.253 813.194 834.388 813.194 836.865C813.194 838.744 814.009 840.709 815.557 842.759C817.106 844.809 819.713 845.834 823.299 845.834C825.092 845.834 826.967 845.407 828.922 844.553C830.308 843.955 831.693 842.93 833.079 841.478C830.308 839.001 828.026 836.694 826.233 834.644C824.277 832.594 822.077 829.946 819.713 826.871C817.758 827.982 816.291 829.178 815.313 830.63ZM819.469 810.727C819.469 812.179 819.876 813.973 820.691 816.023C820.854 816.877 821.343 817.902 822.158 819.098C824.114 818.073 825.744 817.048 826.885 816.023C828.434 814.571 829.248 812.777 829.248 810.727C829.248 808.848 828.759 807.311 827.782 806.029C826.967 805.004 825.826 804.492 824.196 804.492C822.81 804.492 821.588 805.09 820.61 806.371C819.876 807.396 819.469 808.848 819.469 810.727Z" fill="black"/>
<path d="M816.209 801.417C818.002 799.11 820.691 798 824.196 798C827.7 798 830.552 799.281 832.508 801.758C834.301 804.065 835.198 806.883 835.198 810.129C835.198 814.486 833.812 817.902 831.041 820.38C829.819 821.405 827.782 822.771 824.766 824.394L828.597 828.751C831.204 831.655 833.975 834.217 836.909 836.524C838.865 831.996 840.413 827.042 841.391 821.917L846.77 825.675C845.548 830.886 843.999 835.669 842.043 840.026C846.037 842.332 850.275 843.87 854.838 844.724L851.252 851.899C846.689 850.447 842.451 848.397 838.458 845.663C836.665 847.713 834.383 849.422 831.612 850.618C829.004 851.899 826.233 852.497 823.299 852.497C817.758 852.497 813.683 850.874 811.156 847.543C808.385 844.211 807 840.624 807 836.609C807 832.851 808.222 829.519 810.586 826.615C811.971 824.992 814.09 823.284 816.861 821.661C816.046 820.38 815.476 819.184 815.068 817.902C814.09 815.425 813.601 812.948 813.601 810.386C813.52 806.713 814.416 803.638 816.209 801.417ZM815.313 830.63C813.927 832.253 813.194 834.388 813.194 836.865C813.194 838.744 814.009 840.709 815.557 842.759C817.106 844.809 819.713 845.834 823.299 845.834C825.092 845.834 826.967 845.407 828.922 844.553C830.308 843.955 831.693 842.93 833.079 841.478C830.308 839.001 828.026 836.694 826.233 834.644C824.277 832.594 822.077 829.946 819.713 826.871C817.758 827.982 816.291 829.178 815.313 830.63ZM819.469 810.727C819.469 812.179 819.876 813.973 820.691 816.023C820.854 816.877 821.343 817.902 822.158 819.098C824.114 818.073 825.744 817.048 826.885 816.023C828.434 814.571 829.248 812.777 829.248 810.727C829.248 808.848 828.759 807.311 827.782 806.029C826.967 805.004 825.826 804.492 824.196 804.492C822.81 804.492 821.588 805.09 820.61 806.371C819.876 807.396 819.469 808.848 819.469 810.727Z" stroke="#FF5757"/>
</svg>
